<mxfile host="Electron" agent="Mozilla/5.0 (Windows NT 10.0; Win64; x64) AppleWebKit/537.36 (KHTML, like Gecko) draw.io/24.7.8 Chrome/128.0.6613.36 Electron/32.0.1 Safari/537.36" version="24.7.8">
  <diagram id="C5RBs43oDa-KdzZeNtuy" name="Page-1">
    <mxGraphModel dx="1658" dy="820" grid="1" gridSize="10" guides="1" tooltips="1" connect="1" arrows="1" fold="1" page="1" pageScale="1" pageWidth="827" pageHeight="1169" math="0" shadow="0">
      <root>
        <mxCell id="WIyWlLk6GJQsqaUBKTNV-0" />
        <mxCell id="WIyWlLk6GJQsqaUBKTNV-1" parent="WIyWlLk6GJQsqaUBKTNV-0" />
        <mxCell id="8M1j4d1DlvPESHGVBWMY-0" value="Run" style="rounded=0;whiteSpace=wrap;html=1;" vertex="1" parent="WIyWlLk6GJQsqaUBKTNV-1">
          <mxGeometry x="80" y="40" width="120" height="60" as="geometry" />
        </mxCell>
        <mxCell id="8M1j4d1DlvPESHGVBWMY-1" value="Ocurre" style="rhombus;whiteSpace=wrap;html=1;" vertex="1" parent="WIyWlLk6GJQsqaUBKTNV-1">
          <mxGeometry x="100" y="200" width="80" height="80" as="geometry" />
        </mxCell>
        <mxCell id="8M1j4d1DlvPESHGVBWMY-2" value="Evento" style="rounded=0;whiteSpace=wrap;html=1;" vertex="1" parent="WIyWlLk6GJQsqaUBKTNV-1">
          <mxGeometry x="80" y="390" width="120" height="60" as="geometry" />
        </mxCell>
        <mxCell id="8M1j4d1DlvPESHGVBWMY-3" value="" style="endArrow=none;html=1;rounded=0;entryX=0.5;entryY=1;entryDx=0;entryDy=0;exitX=0.5;exitY=0;exitDx=0;exitDy=0;" edge="1" parent="WIyWlLk6GJQsqaUBKTNV-1" source="8M1j4d1DlvPESHGVBWMY-1" target="8M1j4d1DlvPESHGVBWMY-0">
          <mxGeometry width="50" height="50" relative="1" as="geometry">
            <mxPoint x="390" y="420" as="sourcePoint" />
            <mxPoint x="440" y="370" as="targetPoint" />
          </mxGeometry>
        </mxCell>
        <mxCell id="8M1j4d1DlvPESHGVBWMY-4" value="" style="endArrow=none;html=1;rounded=0;entryX=0.5;entryY=1;entryDx=0;entryDy=0;exitX=0.5;exitY=0;exitDx=0;exitDy=0;" edge="1" parent="WIyWlLk6GJQsqaUBKTNV-1" source="8M1j4d1DlvPESHGVBWMY-2" target="8M1j4d1DlvPESHGVBWMY-1">
          <mxGeometry width="50" height="50" relative="1" as="geometry">
            <mxPoint x="150" y="180" as="sourcePoint" />
            <mxPoint x="150" y="110" as="targetPoint" />
          </mxGeometry>
        </mxCell>
        <mxCell id="8M1j4d1DlvPESHGVBWMY-5" value="" style="endArrow=none;html=1;rounded=0;exitX=1;exitY=0.25;exitDx=0;exitDy=0;entryX=0;entryY=0.5;entryDx=0;entryDy=0;" edge="1" parent="WIyWlLk6GJQsqaUBKTNV-1" source="8M1j4d1DlvPESHGVBWMY-2" target="8M1j4d1DlvPESHGVBWMY-6">
          <mxGeometry width="50" height="50" relative="1" as="geometry">
            <mxPoint x="390" y="420" as="sourcePoint" />
            <mxPoint x="300" y="350" as="targetPoint" />
          </mxGeometry>
        </mxCell>
        <mxCell id="8M1j4d1DlvPESHGVBWMY-6" value="Participa" style="rhombus;whiteSpace=wrap;html=1;rotation=0;" vertex="1" parent="WIyWlLk6GJQsqaUBKTNV-1">
          <mxGeometry x="310" y="255" width="80" height="80" as="geometry" />
        </mxCell>
        <mxCell id="8M1j4d1DlvPESHGVBWMY-7" value="" style="endArrow=none;html=1;rounded=0;exitX=1;exitY=0.75;exitDx=0;exitDy=0;entryX=0;entryY=0.5;entryDx=0;entryDy=0;" edge="1" parent="WIyWlLk6GJQsqaUBKTNV-1" source="8M1j4d1DlvPESHGVBWMY-2" target="8M1j4d1DlvPESHGVBWMY-9">
          <mxGeometry width="50" height="50" relative="1" as="geometry">
            <mxPoint x="390" y="420" as="sourcePoint" />
            <mxPoint x="350" y="500" as="targetPoint" />
          </mxGeometry>
        </mxCell>
        <mxCell id="8M1j4d1DlvPESHGVBWMY-9" value="Participa" style="rhombus;whiteSpace=wrap;html=1;rotation=0;" vertex="1" parent="WIyWlLk6GJQsqaUBKTNV-1">
          <mxGeometry x="310" y="486" width="80" height="80" as="geometry" />
        </mxCell>
        <mxCell id="8M1j4d1DlvPESHGVBWMY-10" value="PartÃ­culaA" style="rounded=0;whiteSpace=wrap;html=1;" vertex="1" parent="WIyWlLk6GJQsqaUBKTNV-1">
          <mxGeometry x="550" y="265" width="120" height="60" as="geometry" />
        </mxCell>
        <mxCell id="8M1j4d1DlvPESHGVBWMY-12" value="" style="endArrow=none;html=1;rounded=0;entryX=0;entryY=0.5;entryDx=0;entryDy=0;exitX=1;exitY=0.5;exitDx=0;exitDy=0;" edge="1" parent="WIyWlLk6GJQsqaUBKTNV-1" source="8M1j4d1DlvPESHGVBWMY-6" target="8M1j4d1DlvPESHGVBWMY-10">
          <mxGeometry width="50" height="50" relative="1" as="geometry">
            <mxPoint x="390" y="405" as="sourcePoint" />
            <mxPoint x="440" y="355" as="targetPoint" />
          </mxGeometry>
        </mxCell>
        <mxCell id="8M1j4d1DlvPESHGVBWMY-13" value="" style="endArrow=none;html=1;rounded=0;entryX=0;entryY=0.5;entryDx=0;entryDy=0;exitX=1;exitY=0.5;exitDx=0;exitDy=0;" edge="1" parent="WIyWlLk6GJQsqaUBKTNV-1" source="8M1j4d1DlvPESHGVBWMY-9" target="8M1j4d1DlvPESHGVBWMY-80">
          <mxGeometry width="50" height="50" relative="1" as="geometry">
            <mxPoint x="400" y="346" as="sourcePoint" />
            <mxPoint x="550" y="526" as="targetPoint" />
          </mxGeometry>
        </mxCell>
        <mxCell id="8M1j4d1DlvPESHGVBWMY-14" value="0..N" style="text;html=1;align=center;verticalAlign=middle;resizable=0;points=[];autosize=1;strokeColor=none;fillColor=none;" vertex="1" parent="WIyWlLk6GJQsqaUBKTNV-1">
          <mxGeometry x="130" y="365" width="50" height="30" as="geometry" />
        </mxCell>
        <mxCell id="8M1j4d1DlvPESHGVBWMY-15" value="1..1" style="text;html=1;align=center;verticalAlign=middle;resizable=0;points=[];autosize=1;strokeColor=none;fillColor=none;" vertex="1" parent="WIyWlLk6GJQsqaUBKTNV-1">
          <mxGeometry x="140" y="98" width="40" height="30" as="geometry" />
        </mxCell>
        <mxCell id="8M1j4d1DlvPESHGVBWMY-16" value="1:N" style="text;html=1;align=center;verticalAlign=middle;resizable=0;points=[];autosize=1;strokeColor=none;fillColor=none;" vertex="1" parent="WIyWlLk6GJQsqaUBKTNV-1">
          <mxGeometry x="175" y="225" width="40" height="30" as="geometry" />
        </mxCell>
        <mxCell id="8M1j4d1DlvPESHGVBWMY-17" value="1..1" style="text;html=1;align=center;verticalAlign=middle;resizable=0;points=[];autosize=1;strokeColor=none;fillColor=none;" vertex="1" parent="WIyWlLk6GJQsqaUBKTNV-1">
          <mxGeometry x="510" y="265" width="40" height="30" as="geometry" />
        </mxCell>
        <mxCell id="8M1j4d1DlvPESHGVBWMY-18" value="1..1" style="text;html=1;align=center;verticalAlign=middle;resizable=0;points=[];autosize=1;strokeColor=none;fillColor=none;" vertex="1" parent="WIyWlLk6GJQsqaUBKTNV-1">
          <mxGeometry x="510" y="496" width="40" height="30" as="geometry" />
        </mxCell>
        <mxCell id="8M1j4d1DlvPESHGVBWMY-19" value="1..1" style="text;html=1;align=center;verticalAlign=middle;resizable=0;points=[];autosize=1;strokeColor=none;fillColor=none;" vertex="1" parent="WIyWlLk6GJQsqaUBKTNV-1">
          <mxGeometry x="190" y="360" width="40" height="30" as="geometry" />
        </mxCell>
        <mxCell id="8M1j4d1DlvPESHGVBWMY-20" value="1..1" style="text;html=1;align=center;verticalAlign=middle;resizable=0;points=[];autosize=1;strokeColor=none;fillColor=none;" vertex="1" parent="WIyWlLk6GJQsqaUBKTNV-1">
          <mxGeometry x="190" y="450" width="40" height="30" as="geometry" />
        </mxCell>
        <mxCell id="8M1j4d1DlvPESHGVBWMY-21" value="1:1" style="text;html=1;align=center;verticalAlign=middle;resizable=0;points=[];autosize=1;strokeColor=none;fillColor=none;" vertex="1" parent="WIyWlLk6GJQsqaUBKTNV-1">
          <mxGeometry x="330" y="225" width="40" height="30" as="geometry" />
        </mxCell>
        <mxCell id="8M1j4d1DlvPESHGVBWMY-22" value="1:1" style="text;html=1;align=center;verticalAlign=middle;resizable=0;points=[];autosize=1;strokeColor=none;fillColor=none;" vertex="1" parent="WIyWlLk6GJQsqaUBKTNV-1">
          <mxGeometry x="330" y="456" width="40" height="30" as="geometry" />
        </mxCell>
        <mxCell id="8M1j4d1DlvPESHGVBWMY-23" value="" style="endArrow=none;html=1;rounded=0;exitX=1;exitY=0.25;exitDx=0;exitDy=0;" edge="1" parent="WIyWlLk6GJQsqaUBKTNV-1" source="8M1j4d1DlvPESHGVBWMY-28">
          <mxGeometry width="50" height="50" relative="1" as="geometry">
            <mxPoint x="390" y="420" as="sourcePoint" />
            <mxPoint x="250" y="40" as="targetPoint" />
          </mxGeometry>
        </mxCell>
        <mxCell id="8M1j4d1DlvPESHGVBWMY-24" value="num_run" style="text;html=1;align=center;verticalAlign=middle;resizable=0;points=[];autosize=1;strokeColor=none;fillColor=none;" vertex="1" parent="WIyWlLk6GJQsqaUBKTNV-1">
          <mxGeometry x="255" y="20" width="70" height="30" as="geometry" />
        </mxCell>
        <mxCell id="8M1j4d1DlvPESHGVBWMY-27" value="" style="ellipse;whiteSpace=wrap;html=1;aspect=fixed;" vertex="1" parent="WIyWlLk6GJQsqaUBKTNV-1">
          <mxGeometry x="40" y="480" width="10" height="10" as="geometry" />
        </mxCell>
        <mxCell id="8M1j4d1DlvPESHGVBWMY-31" value="" style="endArrow=none;html=1;rounded=0;exitX=1;exitY=0.25;exitDx=0;exitDy=0;" edge="1" parent="WIyWlLk6GJQsqaUBKTNV-1" source="8M1j4d1DlvPESHGVBWMY-0" target="8M1j4d1DlvPESHGVBWMY-28">
          <mxGeometry width="50" height="50" relative="1" as="geometry">
            <mxPoint x="200" y="55" as="sourcePoint" />
            <mxPoint x="250" y="40" as="targetPoint" />
          </mxGeometry>
        </mxCell>
        <mxCell id="8M1j4d1DlvPESHGVBWMY-28" value="" style="ellipse;whiteSpace=wrap;html=1;aspect=fixed;fillColor=default;" vertex="1" parent="WIyWlLk6GJQsqaUBKTNV-1">
          <mxGeometry x="250" y="30" width="10" height="10" as="geometry" />
        </mxCell>
        <mxCell id="8M1j4d1DlvPESHGVBWMY-32" value="" style="endArrow=none;html=1;rounded=0;exitX=0;exitY=0.5;exitDx=0;exitDy=0;" edge="1" parent="WIyWlLk6GJQsqaUBKTNV-1" source="8M1j4d1DlvPESHGVBWMY-2">
          <mxGeometry width="50" height="50" relative="1" as="geometry">
            <mxPoint x="390" y="420" as="sourcePoint" />
            <mxPoint x="50" y="480" as="targetPoint" />
          </mxGeometry>
        </mxCell>
        <mxCell id="8M1j4d1DlvPESHGVBWMY-33" value="num_run" style="text;html=1;align=center;verticalAlign=middle;whiteSpace=wrap;rounded=0;" vertex="1" parent="WIyWlLk6GJQsqaUBKTNV-1">
          <mxGeometry x="60" y="510" width="60" height="30" as="geometry" />
        </mxCell>
        <mxCell id="8M1j4d1DlvPESHGVBWMY-34" value="" style="endArrow=none;html=1;rounded=0;exitX=1;exitY=0.5;exitDx=0;exitDy=0;" edge="1" parent="WIyWlLk6GJQsqaUBKTNV-1" source="8M1j4d1DlvPESHGVBWMY-0">
          <mxGeometry width="50" height="50" relative="1" as="geometry">
            <mxPoint x="390" y="420" as="sourcePoint" />
            <mxPoint x="270" y="70" as="targetPoint" />
          </mxGeometry>
        </mxCell>
        <mxCell id="8M1j4d1DlvPESHGVBWMY-35" value="" style="ellipse;whiteSpace=wrap;html=1;aspect=fixed;fillColor=#FFFFFF;" vertex="1" parent="WIyWlLk6GJQsqaUBKTNV-1">
          <mxGeometry x="270" y="65" width="10" height="10" as="geometry" />
        </mxCell>
        <mxCell id="8M1j4d1DlvPESHGVBWMY-36" value="fecha" style="text;html=1;align=center;verticalAlign=middle;resizable=0;points=[];autosize=1;strokeColor=none;fillColor=none;" vertex="1" parent="WIyWlLk6GJQsqaUBKTNV-1">
          <mxGeometry x="280" y="55" width="50" height="30" as="geometry" />
        </mxCell>
        <mxCell id="8M1j4d1DlvPESHGVBWMY-37" value="" style="endArrow=none;html=1;rounded=0;exitX=0.108;exitY=0.983;exitDx=0;exitDy=0;exitPerimeter=0;entryX=0.5;entryY=0;entryDx=0;entryDy=0;" edge="1" parent="WIyWlLk6GJQsqaUBKTNV-1" source="8M1j4d1DlvPESHGVBWMY-2" target="8M1j4d1DlvPESHGVBWMY-39">
          <mxGeometry width="50" height="50" relative="1" as="geometry">
            <mxPoint x="390" y="420" as="sourcePoint" />
            <mxPoint x="126" y="510" as="targetPoint" />
          </mxGeometry>
        </mxCell>
        <mxCell id="8M1j4d1DlvPESHGVBWMY-38" value="num_evento" style="text;html=1;align=center;verticalAlign=middle;whiteSpace=wrap;rounded=0;" vertex="1" parent="WIyWlLk6GJQsqaUBKTNV-1">
          <mxGeometry x="10" y="485" width="60" height="30" as="geometry" />
        </mxCell>
        <mxCell id="8M1j4d1DlvPESHGVBWMY-39" value="" style="ellipse;whiteSpace=wrap;html=1;aspect=fixed;fillColor=#FFFFFF;" vertex="1" parent="WIyWlLk6GJQsqaUBKTNV-1">
          <mxGeometry x="80" y="505" width="10" height="10" as="geometry" />
        </mxCell>
        <mxCell id="8M1j4d1DlvPESHGVBWMY-43" value="id_part" style="text;html=1;align=center;verticalAlign=middle;whiteSpace=wrap;rounded=0;" vertex="1" parent="WIyWlLk6GJQsqaUBKTNV-1">
          <mxGeometry x="545" y="185" width="60" height="30" as="geometry" />
        </mxCell>
        <mxCell id="8M1j4d1DlvPESHGVBWMY-44" value="energy" style="text;html=1;align=center;verticalAlign=middle;resizable=0;points=[];autosize=1;strokeColor=none;fillColor=none;" vertex="1" parent="WIyWlLk6GJQsqaUBKTNV-1">
          <mxGeometry x="600" y="195" width="60" height="30" as="geometry" />
        </mxCell>
        <mxCell id="8M1j4d1DlvPESHGVBWMY-45" value="px" style="text;html=1;align=center;verticalAlign=middle;resizable=0;points=[];autosize=1;strokeColor=none;fillColor=none;" vertex="1" parent="WIyWlLk6GJQsqaUBKTNV-1">
          <mxGeometry x="670" y="205" width="40" height="30" as="geometry" />
        </mxCell>
        <mxCell id="8M1j4d1DlvPESHGVBWMY-46" value="py" style="text;html=1;align=center;verticalAlign=middle;resizable=0;points=[];autosize=1;strokeColor=none;fillColor=none;" vertex="1" parent="WIyWlLk6GJQsqaUBKTNV-1">
          <mxGeometry x="720" y="225" width="40" height="30" as="geometry" />
        </mxCell>
        <mxCell id="8M1j4d1DlvPESHGVBWMY-47" value="pz" style="text;html=1;align=center;verticalAlign=middle;resizable=0;points=[];autosize=1;strokeColor=none;fillColor=none;" vertex="1" parent="WIyWlLk6GJQsqaUBKTNV-1">
          <mxGeometry x="710" y="265" width="40" height="30" as="geometry" />
        </mxCell>
        <mxCell id="8M1j4d1DlvPESHGVBWMY-48" value="pt" style="text;html=1;align=center;verticalAlign=middle;resizable=0;points=[];autosize=1;strokeColor=none;fillColor=none;" vertex="1" parent="WIyWlLk6GJQsqaUBKTNV-1">
          <mxGeometry x="650" y="355" width="30" height="30" as="geometry" />
        </mxCell>
        <mxCell id="8M1j4d1DlvPESHGVBWMY-49" value="eta" style="text;html=1;align=center;verticalAlign=middle;resizable=0;points=[];autosize=1;strokeColor=none;fillColor=none;" vertex="1" parent="WIyWlLk6GJQsqaUBKTNV-1">
          <mxGeometry x="700" y="295" width="40" height="30" as="geometry" />
        </mxCell>
        <mxCell id="8M1j4d1DlvPESHGVBWMY-50" value="phi" style="text;html=1;align=center;verticalAlign=middle;resizable=0;points=[];autosize=1;strokeColor=none;fillColor=none;" vertex="1" parent="WIyWlLk6GJQsqaUBKTNV-1">
          <mxGeometry x="700" y="335" width="40" height="30" as="geometry" />
        </mxCell>
        <mxCell id="8M1j4d1DlvPESHGVBWMY-51" value="charge" style="text;html=1;align=center;verticalAlign=middle;resizable=0;points=[];autosize=1;strokeColor=none;fillColor=none;" vertex="1" parent="WIyWlLk6GJQsqaUBKTNV-1">
          <mxGeometry x="545" y="363" width="60" height="30" as="geometry" />
        </mxCell>
        <mxCell id="8M1j4d1DlvPESHGVBWMY-53" value="" style="endArrow=none;html=1;rounded=0;exitX=0.25;exitY=0;exitDx=0;exitDy=0;" edge="1" parent="WIyWlLk6GJQsqaUBKTNV-1" source="8M1j4d1DlvPESHGVBWMY-64" target="8M1j4d1DlvPESHGVBWMY-44">
          <mxGeometry width="50" height="50" relative="1" as="geometry">
            <mxPoint x="577" y="278" as="sourcePoint" />
            <mxPoint x="587" y="231" as="targetPoint" />
          </mxGeometry>
        </mxCell>
        <mxCell id="8M1j4d1DlvPESHGVBWMY-54" value="" style="endArrow=none;html=1;rounded=0;exitX=0.5;exitY=0;exitDx=0;exitDy=0;" edge="1" parent="WIyWlLk6GJQsqaUBKTNV-1" source="8M1j4d1DlvPESHGVBWMY-66" target="8M1j4d1DlvPESHGVBWMY-45">
          <mxGeometry width="50" height="50" relative="1" as="geometry">
            <mxPoint x="587" y="288" as="sourcePoint" />
            <mxPoint x="597" y="241" as="targetPoint" />
          </mxGeometry>
        </mxCell>
        <mxCell id="8M1j4d1DlvPESHGVBWMY-55" value="" style="endArrow=none;html=1;rounded=0;entryX=0.75;entryY=0;entryDx=0;entryDy=0;" edge="1" parent="WIyWlLk6GJQsqaUBKTNV-1" source="8M1j4d1DlvPESHGVBWMY-68" target="8M1j4d1DlvPESHGVBWMY-10">
          <mxGeometry width="50" height="50" relative="1" as="geometry">
            <mxPoint x="597" y="298" as="sourcePoint" />
            <mxPoint x="607" y="251" as="targetPoint" />
          </mxGeometry>
        </mxCell>
        <mxCell id="8M1j4d1DlvPESHGVBWMY-57" value="" style="endArrow=none;html=1;rounded=0;exitX=1;exitY=0.25;exitDx=0;exitDy=0;" edge="1" parent="WIyWlLk6GJQsqaUBKTNV-1" source="8M1j4d1DlvPESHGVBWMY-70" target="8M1j4d1DlvPESHGVBWMY-47">
          <mxGeometry width="50" height="50" relative="1" as="geometry">
            <mxPoint x="607" y="308" as="sourcePoint" />
            <mxPoint x="617" y="261" as="targetPoint" />
          </mxGeometry>
        </mxCell>
        <mxCell id="8M1j4d1DlvPESHGVBWMY-58" value="" style="endArrow=none;html=1;rounded=0;exitX=1;exitY=1;exitDx=0;exitDy=0;" edge="1" parent="WIyWlLk6GJQsqaUBKTNV-1" source="8M1j4d1DlvPESHGVBWMY-74" target="8M1j4d1DlvPESHGVBWMY-50">
          <mxGeometry width="50" height="50" relative="1" as="geometry">
            <mxPoint x="390" y="405" as="sourcePoint" />
            <mxPoint x="440" y="355" as="targetPoint" />
          </mxGeometry>
        </mxCell>
        <mxCell id="8M1j4d1DlvPESHGVBWMY-59" value="" style="endArrow=none;html=1;rounded=0;exitX=1.008;exitY=0.617;exitDx=0;exitDy=0;exitPerimeter=0;" edge="1" parent="WIyWlLk6GJQsqaUBKTNV-1" source="8M1j4d1DlvPESHGVBWMY-72" target="8M1j4d1DlvPESHGVBWMY-49">
          <mxGeometry width="50" height="50" relative="1" as="geometry">
            <mxPoint x="390" y="405" as="sourcePoint" />
            <mxPoint x="440" y="355" as="targetPoint" />
          </mxGeometry>
        </mxCell>
        <mxCell id="8M1j4d1DlvPESHGVBWMY-60" value="" style="endArrow=none;html=1;rounded=0;exitX=0.808;exitY=1.067;exitDx=0;exitDy=0;exitPerimeter=0;" edge="1" parent="WIyWlLk6GJQsqaUBKTNV-1" source="8M1j4d1DlvPESHGVBWMY-76" target="8M1j4d1DlvPESHGVBWMY-48">
          <mxGeometry width="50" height="50" relative="1" as="geometry">
            <mxPoint x="617" y="318" as="sourcePoint" />
            <mxPoint x="627" y="271" as="targetPoint" />
          </mxGeometry>
        </mxCell>
        <mxCell id="8M1j4d1DlvPESHGVBWMY-61" value="" style="endArrow=none;html=1;rounded=0;entryX=0.25;entryY=1;entryDx=0;entryDy=0;exitX=0.5;exitY=0;exitDx=0;exitDy=0;" edge="1" parent="WIyWlLk6GJQsqaUBKTNV-1" source="8M1j4d1DlvPESHGVBWMY-78" target="8M1j4d1DlvPESHGVBWMY-10">
          <mxGeometry width="50" height="50" relative="1" as="geometry">
            <mxPoint x="627" y="328" as="sourcePoint" />
            <mxPoint x="637" y="281" as="targetPoint" />
          </mxGeometry>
        </mxCell>
        <mxCell id="8M1j4d1DlvPESHGVBWMY-63" value="" style="endArrow=none;html=1;rounded=0;entryX=0.617;entryY=0.867;entryDx=0;entryDy=0;entryPerimeter=0;exitX=0.15;exitY=-0.05;exitDx=0;exitDy=0;exitPerimeter=0;" edge="1" parent="WIyWlLk6GJQsqaUBKTNV-1" source="8M1j4d1DlvPESHGVBWMY-10" target="8M1j4d1DlvPESHGVBWMY-62">
          <mxGeometry width="50" height="50" relative="1" as="geometry">
            <mxPoint x="568" y="262" as="sourcePoint" />
            <mxPoint x="577" y="221" as="targetPoint" />
          </mxGeometry>
        </mxCell>
        <mxCell id="8M1j4d1DlvPESHGVBWMY-62" value="" style="ellipse;whiteSpace=wrap;html=1;aspect=fixed;fillColor=#000000;" vertex="1" parent="WIyWlLk6GJQsqaUBKTNV-1">
          <mxGeometry x="570" y="215" width="10" height="10" as="geometry" />
        </mxCell>
        <mxCell id="8M1j4d1DlvPESHGVBWMY-65" value="" style="endArrow=none;html=1;rounded=0;exitX=0.25;exitY=0;exitDx=0;exitDy=0;" edge="1" parent="WIyWlLk6GJQsqaUBKTNV-1" source="8M1j4d1DlvPESHGVBWMY-10" target="8M1j4d1DlvPESHGVBWMY-64">
          <mxGeometry width="50" height="50" relative="1" as="geometry">
            <mxPoint x="580" y="265" as="sourcePoint" />
            <mxPoint x="616" y="225" as="targetPoint" />
          </mxGeometry>
        </mxCell>
        <mxCell id="8M1j4d1DlvPESHGVBWMY-64" value="" style="ellipse;whiteSpace=wrap;html=1;aspect=fixed;fillColor=#FFFFFF;" vertex="1" parent="WIyWlLk6GJQsqaUBKTNV-1">
          <mxGeometry x="610" y="225" width="10" height="10" as="geometry" />
        </mxCell>
        <mxCell id="8M1j4d1DlvPESHGVBWMY-67" value="" style="endArrow=none;html=1;rounded=0;exitX=0.5;exitY=0;exitDx=0;exitDy=0;" edge="1" parent="WIyWlLk6GJQsqaUBKTNV-1" source="8M1j4d1DlvPESHGVBWMY-10" target="8M1j4d1DlvPESHGVBWMY-66">
          <mxGeometry width="50" height="50" relative="1" as="geometry">
            <mxPoint x="610" y="265" as="sourcePoint" />
            <mxPoint x="670" y="231" as="targetPoint" />
          </mxGeometry>
        </mxCell>
        <mxCell id="8M1j4d1DlvPESHGVBWMY-66" value="" style="ellipse;whiteSpace=wrap;html=1;aspect=fixed;fillColor=#FFFFFF;" vertex="1" parent="WIyWlLk6GJQsqaUBKTNV-1">
          <mxGeometry x="670" y="225" width="10" height="10" as="geometry" />
        </mxCell>
        <mxCell id="8M1j4d1DlvPESHGVBWMY-69" value="" style="endArrow=none;html=1;rounded=0;entryX=0.883;entryY=-0.05;entryDx=0;entryDy=0;entryPerimeter=0;" edge="1" parent="WIyWlLk6GJQsqaUBKTNV-1" source="8M1j4d1DlvPESHGVBWMY-46" target="8M1j4d1DlvPESHGVBWMY-68">
          <mxGeometry width="50" height="50" relative="1" as="geometry">
            <mxPoint x="720" y="245" as="sourcePoint" />
            <mxPoint x="656" y="262" as="targetPoint" />
          </mxGeometry>
        </mxCell>
        <mxCell id="8M1j4d1DlvPESHGVBWMY-68" value="" style="ellipse;whiteSpace=wrap;html=1;aspect=fixed;fillColor=#FFFFFF;" vertex="1" parent="WIyWlLk6GJQsqaUBKTNV-1">
          <mxGeometry x="710" y="245" width="10" height="10" as="geometry" />
        </mxCell>
        <mxCell id="8M1j4d1DlvPESHGVBWMY-71" value="" style="endArrow=none;html=1;rounded=0;exitX=1;exitY=0.25;exitDx=0;exitDy=0;" edge="1" parent="WIyWlLk6GJQsqaUBKTNV-1" source="8M1j4d1DlvPESHGVBWMY-10" target="8M1j4d1DlvPESHGVBWMY-70">
          <mxGeometry width="50" height="50" relative="1" as="geometry">
            <mxPoint x="670" y="280" as="sourcePoint" />
            <mxPoint x="710" y="280" as="targetPoint" />
          </mxGeometry>
        </mxCell>
        <mxCell id="8M1j4d1DlvPESHGVBWMY-70" value="" style="ellipse;whiteSpace=wrap;html=1;aspect=fixed;fillColor=#FFFFFF;" vertex="1" parent="WIyWlLk6GJQsqaUBKTNV-1">
          <mxGeometry x="700" y="275" width="10" height="10" as="geometry" />
        </mxCell>
        <mxCell id="8M1j4d1DlvPESHGVBWMY-73" value="" style="endArrow=none;html=1;rounded=0;exitX=1.008;exitY=0.617;exitDx=0;exitDy=0;exitPerimeter=0;" edge="1" parent="WIyWlLk6GJQsqaUBKTNV-1" source="8M1j4d1DlvPESHGVBWMY-10" target="8M1j4d1DlvPESHGVBWMY-72">
          <mxGeometry width="50" height="50" relative="1" as="geometry">
            <mxPoint x="671" y="302" as="sourcePoint" />
            <mxPoint x="700" y="307" as="targetPoint" />
          </mxGeometry>
        </mxCell>
        <mxCell id="8M1j4d1DlvPESHGVBWMY-72" value="" style="ellipse;whiteSpace=wrap;html=1;aspect=fixed;fillColor=#FFFFFF;" vertex="1" parent="WIyWlLk6GJQsqaUBKTNV-1">
          <mxGeometry x="700" y="305" width="10" height="10" as="geometry" />
        </mxCell>
        <mxCell id="8M1j4d1DlvPESHGVBWMY-75" value="" style="endArrow=none;html=1;rounded=0;exitX=1;exitY=1;exitDx=0;exitDy=0;" edge="1" parent="WIyWlLk6GJQsqaUBKTNV-1" source="8M1j4d1DlvPESHGVBWMY-10" target="8M1j4d1DlvPESHGVBWMY-74">
          <mxGeometry width="50" height="50" relative="1" as="geometry">
            <mxPoint x="670" y="325" as="sourcePoint" />
            <mxPoint x="700" y="340" as="targetPoint" />
          </mxGeometry>
        </mxCell>
        <mxCell id="8M1j4d1DlvPESHGVBWMY-74" value="" style="ellipse;whiteSpace=wrap;html=1;aspect=fixed;fillColor=#FFFFFF;" vertex="1" parent="WIyWlLk6GJQsqaUBKTNV-1">
          <mxGeometry x="700" y="335" width="10" height="10" as="geometry" />
        </mxCell>
        <mxCell id="8M1j4d1DlvPESHGVBWMY-77" value="" style="endArrow=none;html=1;rounded=0;exitX=0.808;exitY=1.067;exitDx=0;exitDy=0;exitPerimeter=0;" edge="1" parent="WIyWlLk6GJQsqaUBKTNV-1" source="8M1j4d1DlvPESHGVBWMY-10" target="8M1j4d1DlvPESHGVBWMY-76">
          <mxGeometry width="50" height="50" relative="1" as="geometry">
            <mxPoint x="647" y="329" as="sourcePoint" />
            <mxPoint x="658" y="355" as="targetPoint" />
          </mxGeometry>
        </mxCell>
        <mxCell id="8M1j4d1DlvPESHGVBWMY-76" value="" style="ellipse;whiteSpace=wrap;html=1;aspect=fixed;fillColor=#FFFFFF;" vertex="1" parent="WIyWlLk6GJQsqaUBKTNV-1">
          <mxGeometry x="650" y="353" width="10" height="10" as="geometry" />
        </mxCell>
        <mxCell id="8M1j4d1DlvPESHGVBWMY-78" value="" style="ellipse;whiteSpace=wrap;html=1;aspect=fixed;fillColor=#FFFFFF;" vertex="1" parent="WIyWlLk6GJQsqaUBKTNV-1">
          <mxGeometry x="565" y="353" width="10" height="10" as="geometry" />
        </mxCell>
        <mxCell id="8M1j4d1DlvPESHGVBWMY-80" value="PartÃ­culaB" style="rounded=0;whiteSpace=wrap;html=1;" vertex="1" parent="WIyWlLk6GJQsqaUBKTNV-1">
          <mxGeometry x="560" y="496" width="120" height="60" as="geometry" />
        </mxCell>
        <mxCell id="8M1j4d1DlvPESHGVBWMY-82" value="id_part" style="text;html=1;align=center;verticalAlign=middle;whiteSpace=wrap;rounded=0;" vertex="1" parent="WIyWlLk6GJQsqaUBKTNV-1">
          <mxGeometry x="555" y="416" width="60" height="30" as="geometry" />
        </mxCell>
        <mxCell id="8M1j4d1DlvPESHGVBWMY-83" value="energy" style="text;html=1;align=center;verticalAlign=middle;resizable=0;points=[];autosize=1;strokeColor=none;fillColor=none;" vertex="1" parent="WIyWlLk6GJQsqaUBKTNV-1">
          <mxGeometry x="610" y="426" width="60" height="30" as="geometry" />
        </mxCell>
        <mxCell id="8M1j4d1DlvPESHGVBWMY-84" value="px" style="text;html=1;align=center;verticalAlign=middle;resizable=0;points=[];autosize=1;strokeColor=none;fillColor=none;" vertex="1" parent="WIyWlLk6GJQsqaUBKTNV-1">
          <mxGeometry x="680" y="436" width="40" height="30" as="geometry" />
        </mxCell>
        <mxCell id="8M1j4d1DlvPESHGVBWMY-85" value="py" style="text;html=1;align=center;verticalAlign=middle;resizable=0;points=[];autosize=1;strokeColor=none;fillColor=none;" vertex="1" parent="WIyWlLk6GJQsqaUBKTNV-1">
          <mxGeometry x="730" y="456" width="40" height="30" as="geometry" />
        </mxCell>
        <mxCell id="8M1j4d1DlvPESHGVBWMY-86" value="pz" style="text;html=1;align=center;verticalAlign=middle;resizable=0;points=[];autosize=1;strokeColor=none;fillColor=none;" vertex="1" parent="WIyWlLk6GJQsqaUBKTNV-1">
          <mxGeometry x="720" y="496" width="40" height="30" as="geometry" />
        </mxCell>
        <mxCell id="8M1j4d1DlvPESHGVBWMY-87" value="pt" style="text;html=1;align=center;verticalAlign=middle;resizable=0;points=[];autosize=1;strokeColor=none;fillColor=none;" vertex="1" parent="WIyWlLk6GJQsqaUBKTNV-1">
          <mxGeometry x="660" y="586" width="30" height="30" as="geometry" />
        </mxCell>
        <mxCell id="8M1j4d1DlvPESHGVBWMY-88" value="eta" style="text;html=1;align=center;verticalAlign=middle;resizable=0;points=[];autosize=1;strokeColor=none;fillColor=none;" vertex="1" parent="WIyWlLk6GJQsqaUBKTNV-1">
          <mxGeometry x="710" y="526" width="40" height="30" as="geometry" />
        </mxCell>
        <mxCell id="8M1j4d1DlvPESHGVBWMY-89" value="phi" style="text;html=1;align=center;verticalAlign=middle;resizable=0;points=[];autosize=1;strokeColor=none;fillColor=none;" vertex="1" parent="WIyWlLk6GJQsqaUBKTNV-1">
          <mxGeometry x="710" y="566" width="40" height="30" as="geometry" />
        </mxCell>
        <mxCell id="8M1j4d1DlvPESHGVBWMY-90" value="charge" style="text;html=1;align=center;verticalAlign=middle;resizable=0;points=[];autosize=1;strokeColor=none;fillColor=none;" vertex="1" parent="WIyWlLk6GJQsqaUBKTNV-1">
          <mxGeometry x="555" y="594" width="60" height="30" as="geometry" />
        </mxCell>
        <mxCell id="8M1j4d1DlvPESHGVBWMY-92" value="" style="endArrow=none;html=1;rounded=0;exitX=0.25;exitY=0;exitDx=0;exitDy=0;" edge="1" parent="WIyWlLk6GJQsqaUBKTNV-1" source="8M1j4d1DlvPESHGVBWMY-103" target="8M1j4d1DlvPESHGVBWMY-83">
          <mxGeometry width="50" height="50" relative="1" as="geometry">
            <mxPoint x="587" y="509" as="sourcePoint" />
            <mxPoint x="597" y="462" as="targetPoint" />
          </mxGeometry>
        </mxCell>
        <mxCell id="8M1j4d1DlvPESHGVBWMY-93" value="" style="endArrow=none;html=1;rounded=0;exitX=0.5;exitY=0;exitDx=0;exitDy=0;" edge="1" parent="WIyWlLk6GJQsqaUBKTNV-1" source="8M1j4d1DlvPESHGVBWMY-105" target="8M1j4d1DlvPESHGVBWMY-84">
          <mxGeometry width="50" height="50" relative="1" as="geometry">
            <mxPoint x="597" y="519" as="sourcePoint" />
            <mxPoint x="607" y="472" as="targetPoint" />
          </mxGeometry>
        </mxCell>
        <mxCell id="8M1j4d1DlvPESHGVBWMY-94" value="" style="endArrow=none;html=1;rounded=0;entryX=0.75;entryY=0;entryDx=0;entryDy=0;" edge="1" parent="WIyWlLk6GJQsqaUBKTNV-1" source="8M1j4d1DlvPESHGVBWMY-107" target="8M1j4d1DlvPESHGVBWMY-80">
          <mxGeometry width="50" height="50" relative="1" as="geometry">
            <mxPoint x="607" y="529" as="sourcePoint" />
            <mxPoint x="617" y="482" as="targetPoint" />
          </mxGeometry>
        </mxCell>
        <mxCell id="8M1j4d1DlvPESHGVBWMY-95" value="" style="endArrow=none;html=1;rounded=0;exitX=1;exitY=0.25;exitDx=0;exitDy=0;" edge="1" parent="WIyWlLk6GJQsqaUBKTNV-1" source="8M1j4d1DlvPESHGVBWMY-109" target="8M1j4d1DlvPESHGVBWMY-86">
          <mxGeometry width="50" height="50" relative="1" as="geometry">
            <mxPoint x="617" y="539" as="sourcePoint" />
            <mxPoint x="627" y="492" as="targetPoint" />
          </mxGeometry>
        </mxCell>
        <mxCell id="8M1j4d1DlvPESHGVBWMY-96" value="" style="endArrow=none;html=1;rounded=0;exitX=1;exitY=1;exitDx=0;exitDy=0;" edge="1" parent="WIyWlLk6GJQsqaUBKTNV-1" source="8M1j4d1DlvPESHGVBWMY-113" target="8M1j4d1DlvPESHGVBWMY-89">
          <mxGeometry width="50" height="50" relative="1" as="geometry">
            <mxPoint x="400" y="636" as="sourcePoint" />
            <mxPoint x="450" y="586" as="targetPoint" />
          </mxGeometry>
        </mxCell>
        <mxCell id="8M1j4d1DlvPESHGVBWMY-97" value="" style="endArrow=none;html=1;rounded=0;exitX=1.008;exitY=0.617;exitDx=0;exitDy=0;exitPerimeter=0;" edge="1" parent="WIyWlLk6GJQsqaUBKTNV-1" source="8M1j4d1DlvPESHGVBWMY-111" target="8M1j4d1DlvPESHGVBWMY-88">
          <mxGeometry width="50" height="50" relative="1" as="geometry">
            <mxPoint x="400" y="636" as="sourcePoint" />
            <mxPoint x="450" y="586" as="targetPoint" />
          </mxGeometry>
        </mxCell>
        <mxCell id="8M1j4d1DlvPESHGVBWMY-98" value="" style="endArrow=none;html=1;rounded=0;exitX=0.808;exitY=1.067;exitDx=0;exitDy=0;exitPerimeter=0;" edge="1" parent="WIyWlLk6GJQsqaUBKTNV-1" source="8M1j4d1DlvPESHGVBWMY-115" target="8M1j4d1DlvPESHGVBWMY-87">
          <mxGeometry width="50" height="50" relative="1" as="geometry">
            <mxPoint x="627" y="549" as="sourcePoint" />
            <mxPoint x="637" y="502" as="targetPoint" />
          </mxGeometry>
        </mxCell>
        <mxCell id="8M1j4d1DlvPESHGVBWMY-99" value="" style="endArrow=none;html=1;rounded=0;entryX=0.25;entryY=1;entryDx=0;entryDy=0;exitX=0.5;exitY=0;exitDx=0;exitDy=0;" edge="1" parent="WIyWlLk6GJQsqaUBKTNV-1" source="8M1j4d1DlvPESHGVBWMY-116" target="8M1j4d1DlvPESHGVBWMY-80">
          <mxGeometry width="50" height="50" relative="1" as="geometry">
            <mxPoint x="637" y="559" as="sourcePoint" />
            <mxPoint x="647" y="512" as="targetPoint" />
          </mxGeometry>
        </mxCell>
        <mxCell id="8M1j4d1DlvPESHGVBWMY-100" value="" style="endArrow=none;html=1;rounded=0;entryX=0.617;entryY=0.867;entryDx=0;entryDy=0;entryPerimeter=0;exitX=0.15;exitY=-0.05;exitDx=0;exitDy=0;exitPerimeter=0;" edge="1" parent="WIyWlLk6GJQsqaUBKTNV-1" source="8M1j4d1DlvPESHGVBWMY-80" target="8M1j4d1DlvPESHGVBWMY-101">
          <mxGeometry width="50" height="50" relative="1" as="geometry">
            <mxPoint x="578" y="493" as="sourcePoint" />
            <mxPoint x="587" y="452" as="targetPoint" />
          </mxGeometry>
        </mxCell>
        <mxCell id="8M1j4d1DlvPESHGVBWMY-101" value="" style="ellipse;whiteSpace=wrap;html=1;aspect=fixed;fillColor=#000000;" vertex="1" parent="WIyWlLk6GJQsqaUBKTNV-1">
          <mxGeometry x="580" y="446" width="10" height="10" as="geometry" />
        </mxCell>
        <mxCell id="8M1j4d1DlvPESHGVBWMY-102" value="" style="endArrow=none;html=1;rounded=0;exitX=0.25;exitY=0;exitDx=0;exitDy=0;" edge="1" parent="WIyWlLk6GJQsqaUBKTNV-1" source="8M1j4d1DlvPESHGVBWMY-80" target="8M1j4d1DlvPESHGVBWMY-103">
          <mxGeometry width="50" height="50" relative="1" as="geometry">
            <mxPoint x="590" y="496" as="sourcePoint" />
            <mxPoint x="626" y="456" as="targetPoint" />
          </mxGeometry>
        </mxCell>
        <mxCell id="8M1j4d1DlvPESHGVBWMY-103" value="" style="ellipse;whiteSpace=wrap;html=1;aspect=fixed;fillColor=#FFFFFF;" vertex="1" parent="WIyWlLk6GJQsqaUBKTNV-1">
          <mxGeometry x="620" y="456" width="10" height="10" as="geometry" />
        </mxCell>
        <mxCell id="8M1j4d1DlvPESHGVBWMY-104" value="" style="endArrow=none;html=1;rounded=0;exitX=0.5;exitY=0;exitDx=0;exitDy=0;" edge="1" parent="WIyWlLk6GJQsqaUBKTNV-1" source="8M1j4d1DlvPESHGVBWMY-80" target="8M1j4d1DlvPESHGVBWMY-105">
          <mxGeometry width="50" height="50" relative="1" as="geometry">
            <mxPoint x="620" y="496" as="sourcePoint" />
            <mxPoint x="680" y="462" as="targetPoint" />
          </mxGeometry>
        </mxCell>
        <mxCell id="8M1j4d1DlvPESHGVBWMY-105" value="" style="ellipse;whiteSpace=wrap;html=1;aspect=fixed;fillColor=#FFFFFF;" vertex="1" parent="WIyWlLk6GJQsqaUBKTNV-1">
          <mxGeometry x="680" y="456" width="10" height="10" as="geometry" />
        </mxCell>
        <mxCell id="8M1j4d1DlvPESHGVBWMY-106" value="" style="endArrow=none;html=1;rounded=0;entryX=0.883;entryY=-0.05;entryDx=0;entryDy=0;entryPerimeter=0;" edge="1" parent="WIyWlLk6GJQsqaUBKTNV-1" source="8M1j4d1DlvPESHGVBWMY-85" target="8M1j4d1DlvPESHGVBWMY-107">
          <mxGeometry width="50" height="50" relative="1" as="geometry">
            <mxPoint x="730" y="476" as="sourcePoint" />
            <mxPoint x="666" y="493" as="targetPoint" />
          </mxGeometry>
        </mxCell>
        <mxCell id="8M1j4d1DlvPESHGVBWMY-107" value="" style="ellipse;whiteSpace=wrap;html=1;aspect=fixed;fillColor=#FFFFFF;" vertex="1" parent="WIyWlLk6GJQsqaUBKTNV-1">
          <mxGeometry x="720" y="476" width="10" height="10" as="geometry" />
        </mxCell>
        <mxCell id="8M1j4d1DlvPESHGVBWMY-108" value="" style="endArrow=none;html=1;rounded=0;exitX=1;exitY=0.25;exitDx=0;exitDy=0;" edge="1" parent="WIyWlLk6GJQsqaUBKTNV-1" source="8M1j4d1DlvPESHGVBWMY-80" target="8M1j4d1DlvPESHGVBWMY-109">
          <mxGeometry width="50" height="50" relative="1" as="geometry">
            <mxPoint x="680" y="511" as="sourcePoint" />
            <mxPoint x="720" y="511" as="targetPoint" />
          </mxGeometry>
        </mxCell>
        <mxCell id="8M1j4d1DlvPESHGVBWMY-109" value="" style="ellipse;whiteSpace=wrap;html=1;aspect=fixed;fillColor=#FFFFFF;" vertex="1" parent="WIyWlLk6GJQsqaUBKTNV-1">
          <mxGeometry x="710" y="506" width="10" height="10" as="geometry" />
        </mxCell>
        <mxCell id="8M1j4d1DlvPESHGVBWMY-110" value="" style="endArrow=none;html=1;rounded=0;exitX=1.008;exitY=0.617;exitDx=0;exitDy=0;exitPerimeter=0;" edge="1" parent="WIyWlLk6GJQsqaUBKTNV-1" source="8M1j4d1DlvPESHGVBWMY-80" target="8M1j4d1DlvPESHGVBWMY-111">
          <mxGeometry width="50" height="50" relative="1" as="geometry">
            <mxPoint x="681" y="533" as="sourcePoint" />
            <mxPoint x="710" y="538" as="targetPoint" />
          </mxGeometry>
        </mxCell>
        <mxCell id="8M1j4d1DlvPESHGVBWMY-111" value="" style="ellipse;whiteSpace=wrap;html=1;aspect=fixed;fillColor=#FFFFFF;" vertex="1" parent="WIyWlLk6GJQsqaUBKTNV-1">
          <mxGeometry x="710" y="536" width="10" height="10" as="geometry" />
        </mxCell>
        <mxCell id="8M1j4d1DlvPESHGVBWMY-112" value="" style="endArrow=none;html=1;rounded=0;exitX=1;exitY=1;exitDx=0;exitDy=0;" edge="1" parent="WIyWlLk6GJQsqaUBKTNV-1" source="8M1j4d1DlvPESHGVBWMY-80" target="8M1j4d1DlvPESHGVBWMY-113">
          <mxGeometry width="50" height="50" relative="1" as="geometry">
            <mxPoint x="680" y="556" as="sourcePoint" />
            <mxPoint x="710" y="571" as="targetPoint" />
          </mxGeometry>
        </mxCell>
        <mxCell id="8M1j4d1DlvPESHGVBWMY-113" value="" style="ellipse;whiteSpace=wrap;html=1;aspect=fixed;fillColor=#FFFFFF;" vertex="1" parent="WIyWlLk6GJQsqaUBKTNV-1">
          <mxGeometry x="710" y="566" width="10" height="10" as="geometry" />
        </mxCell>
        <mxCell id="8M1j4d1DlvPESHGVBWMY-114" value="" style="endArrow=none;html=1;rounded=0;exitX=0.808;exitY=1.067;exitDx=0;exitDy=0;exitPerimeter=0;" edge="1" parent="WIyWlLk6GJQsqaUBKTNV-1" source="8M1j4d1DlvPESHGVBWMY-80" target="8M1j4d1DlvPESHGVBWMY-115">
          <mxGeometry width="50" height="50" relative="1" as="geometry">
            <mxPoint x="657" y="560" as="sourcePoint" />
            <mxPoint x="668" y="586" as="targetPoint" />
          </mxGeometry>
        </mxCell>
        <mxCell id="8M1j4d1DlvPESHGVBWMY-115" value="" style="ellipse;whiteSpace=wrap;html=1;aspect=fixed;fillColor=#FFFFFF;" vertex="1" parent="WIyWlLk6GJQsqaUBKTNV-1">
          <mxGeometry x="660" y="584" width="10" height="10" as="geometry" />
        </mxCell>
        <mxCell id="8M1j4d1DlvPESHGVBWMY-116" value="" style="ellipse;whiteSpace=wrap;html=1;aspect=fixed;fillColor=#FFFFFF;" vertex="1" parent="WIyWlLk6GJQsqaUBKTNV-1">
          <mxGeometry x="575" y="584" width="10" height="10" as="geometry" />
        </mxCell>
        <mxCell id="8M1j4d1DlvPESHGVBWMY-117" value="" style="endArrow=none;html=1;rounded=0;exitX=0.5;exitY=1;exitDx=0;exitDy=0;entryX=0.5;entryY=0;entryDx=0;entryDy=0;" edge="1" parent="WIyWlLk6GJQsqaUBKTNV-1" source="8M1j4d1DlvPESHGVBWMY-2" target="8M1j4d1DlvPESHGVBWMY-119">
          <mxGeometry width="50" height="50" relative="1" as="geometry">
            <mxPoint x="390" y="420" as="sourcePoint" />
            <mxPoint x="130" y="500" as="targetPoint" />
          </mxGeometry>
        </mxCell>
        <mxCell id="8M1j4d1DlvPESHGVBWMY-118" value="id_partA" style="text;html=1;align=center;verticalAlign=middle;resizable=0;points=[];autosize=1;strokeColor=none;fillColor=none;" vertex="1" parent="WIyWlLk6GJQsqaUBKTNV-1">
          <mxGeometry x="105" y="526" width="70" height="30" as="geometry" />
        </mxCell>
        <mxCell id="8M1j4d1DlvPESHGVBWMY-119" value="" style="ellipse;whiteSpace=wrap;html=1;aspect=fixed;fillColor=#FFFFFF;" vertex="1" parent="WIyWlLk6GJQsqaUBKTNV-1">
          <mxGeometry x="130" y="521" width="10" height="10" as="geometry" />
        </mxCell>
        <mxCell id="8M1j4d1DlvPESHGVBWMY-120" value="id_partA" style="text;html=1;align=center;verticalAlign=middle;resizable=0;points=[];autosize=1;strokeColor=none;fillColor=none;" vertex="1" parent="WIyWlLk6GJQsqaUBKTNV-1">
          <mxGeometry x="155" y="506" width="70" height="30" as="geometry" />
        </mxCell>
        <mxCell id="8M1j4d1DlvPESHGVBWMY-121" value="" style="endArrow=none;html=1;rounded=0;entryX=0.75;entryY=1;entryDx=0;entryDy=0;exitX=0.3;exitY=0;exitDx=0;exitDy=0;exitPerimeter=0;" edge="1" parent="WIyWlLk6GJQsqaUBKTNV-1" source="8M1j4d1DlvPESHGVBWMY-122" target="8M1j4d1DlvPESHGVBWMY-2">
          <mxGeometry width="50" height="50" relative="1" as="geometry">
            <mxPoint x="390" y="420" as="sourcePoint" />
            <mxPoint x="440" y="370" as="targetPoint" />
          </mxGeometry>
        </mxCell>
        <mxCell id="8M1j4d1DlvPESHGVBWMY-123" value="" style="endArrow=none;html=1;rounded=0;entryX=0.75;entryY=1;entryDx=0;entryDy=0;exitX=0.3;exitY=0;exitDx=0;exitDy=0;exitPerimeter=0;" edge="1" parent="WIyWlLk6GJQsqaUBKTNV-1" source="8M1j4d1DlvPESHGVBWMY-120" target="8M1j4d1DlvPESHGVBWMY-122">
          <mxGeometry width="50" height="50" relative="1" as="geometry">
            <mxPoint x="176" y="506" as="sourcePoint" />
            <mxPoint x="170" y="450" as="targetPoint" />
          </mxGeometry>
        </mxCell>
        <mxCell id="8M1j4d1DlvPESHGVBWMY-122" value="" style="ellipse;whiteSpace=wrap;html=1;aspect=fixed;fillColor=#FFFFFF;" vertex="1" parent="WIyWlLk6GJQsqaUBKTNV-1">
          <mxGeometry x="170" y="500" width="10" height="10" as="geometry" />
        </mxCell>
      </root>
    </mxGraphModel>
  </diagram>
</mxfile>
